<?xml version="1.0" encoding="UTF-8"?>
<svg xmlns="http://www.w3.org/2000/svg" xmlns:xlink="http://www.w3.org/1999/xlink" width="px" height="px" viewBox="0 0 16 16" version="1.1">
<g id="surface1">
<path style=" stroke:none;fill-rule:nonzero;fill:rgb(7.058824%,57.254902%,1.176471%);fill-opacity:1;" d="M 13.804688 11.140625 L 12.195312 9.527344 C 12.070312 9.398438 11.898438 9.328125 11.71875 9.328125 C 11.542969 9.328125 11.371094 9.398438 11.246094 9.527344 L 8.859375 11.914062 C 8.734375 12.039062 8.664062 12.210938 8.664062 12.386719 L 8.664062 14 C 8.664062 14.367188 8.964844 14.664062 9.335938 14.664062 L 10.945312 14.664062 C 11.125 14.667969 11.296875 14.597656 11.421875 14.472656 L 13.804688 12.085938 C 13.933594 11.960938 14.003906 11.789062 14.003906 11.613281 C 14.003906 11.4375 13.933594 11.265625 13.804688 11.140625 Z M 10.664062 13.335938 L 10 13.335938 L 10 12.664062 L 11.71875 10.945312 L 12.386719 11.613281 Z M 6.664062 13.335938 L 4 13.335938 C 3.632812 13.335938 3.335938 13.035156 3.335938 12.664062 L 3.335938 3.335938 C 3.335938 2.964844 3.632812 2.664062 4 2.664062 L 7.335938 2.664062 L 7.335938 4.664062 C 7.335938 5.773438 8.226562 6.664062 9.335938 6.664062 L 11.335938 6.664062 L 11.335938 7.335938 C 11.335938 7.703125 11.632812 8 12 8 C 12.367188 8 12.664062 7.703125 12.664062 7.335938 L 12.664062 6 C 12.664062 6 12.664062 6 12.664062 5.960938 C 12.660156 5.898438 12.648438 5.835938 12.625 5.78125 L 12.625 5.71875 C 12.59375 5.652344 12.554688 5.585938 12.5 5.53125 L 8.5 1.53125 C 8.445312 1.484375 8.382812 1.4375 8.3125 1.40625 C 8.292969 1.40625 8.273438 1.40625 8.253906 1.40625 L 8.039062 1.335938 L 4 1.335938 C 2.894531 1.335938 2 2.226562 2 3.335938 L 2 12.664062 C 2 13.773438 2.894531 14.664062 4 14.664062 L 6.664062 14.664062 C 7.035156 14.664062 7.335938 14.367188 7.335938 14 C 7.335938 13.632812 7.035156 13.335938 6.664062 13.335938 Z M 8.664062 3.609375 L 10.390625 5.335938 L 9.335938 5.335938 C 8.964844 5.335938 8.664062 5.035156 8.664062 4.664062 Z M 5.335938 9.335938 L 9.335938 9.335938 C 9.703125 9.335938 10 9.035156 10 8.664062 C 10 8.296875 9.703125 8 9.335938 8 L 5.335938 8 C 4.964844 8 4.664062 8.296875 4.664062 8.664062 C 4.664062 9.035156 4.964844 9.335938 5.335938 9.335938 Z M 5.335938 6.664062 L 6 6.664062 C 6.367188 6.664062 6.664062 6.367188 6.664062 6 C 6.664062 5.632812 6.367188 5.335938 6 5.335938 L 5.335938 5.335938 C 4.964844 5.335938 4.664062 5.632812 4.664062 6 C 4.664062 6.367188 4.964844 6.664062 5.335938 6.664062 Z M 6.664062 10.664062 L 5.335938 10.664062 C 4.964844 10.664062 4.664062 10.964844 4.664062 11.335938 C 4.664062 11.703125 4.964844 12 5.335938 12 L 6.664062 12 C 7.035156 12 7.335938 11.703125 7.335938 11.335938 C 7.335938 10.964844 7.035156 10.664062 6.664062 10.664062 Z M 6.664062 10.664062 "/>
</g>
</svg>
