<?xml version="1.0" encoding="UTF-8"?>
<svg xmlns="http://www.w3.org/2000/svg" xmlns:xlink="http://www.w3.org/1999/xlink" width="px" height="px" viewBox="0 0 16 16" version="1.1">
<g id="surface1">
<path style=" stroke:none;fill-rule:nonzero;fill:rgb(76.470588%,1.176471%,1.176471%);fill-opacity:1;" d="M 9.335938 8 L 5.335938 8 C 4.964844 8 4.664062 8.296875 4.664062 8.664062 C 4.664062 9.035156 4.964844 9.335938 5.335938 9.335938 L 9.335938 9.335938 C 9.703125 9.335938 10 9.035156 10 8.664062 C 10 8.296875 9.703125 8 9.335938 8 Z M 12.9375 12.664062 L 13.804688 11.804688 C 14.070312 11.546875 14.070312 11.121094 13.804688 10.859375 C 13.546875 10.597656 13.121094 10.597656 12.859375 10.859375 L 12 11.726562 L 11.140625 10.859375 C 10.878906 10.597656 10.453125 10.597656 10.195312 10.859375 C 9.929688 11.121094 9.929688 11.546875 10.195312 11.804688 L 11.0625 12.664062 L 10.195312 13.527344 C 10.066406 13.652344 9.996094 13.820312 9.996094 14 C 9.996094 14.179688 10.066406 14.347656 10.195312 14.472656 C 10.320312 14.601562 10.488281 14.671875 10.664062 14.671875 C 10.84375 14.671875 11.015625 14.601562 11.140625 14.472656 L 12 13.609375 L 12.859375 14.472656 C 12.984375 14.601562 13.15625 14.671875 13.335938 14.671875 C 13.511719 14.671875 13.679688 14.601562 13.804688 14.472656 C 13.933594 14.347656 14.003906 14.179688 14.003906 14 C 14.003906 13.820312 13.933594 13.652344 13.804688 13.527344 Z M 8 13.335938 L 4 13.335938 C 3.632812 13.335938 3.335938 13.035156 3.335938 12.664062 L 3.335938 3.335938 C 3.335938 2.964844 3.632812 2.664062 4 2.664062 L 7.335938 2.664062 L 7.335938 4.664062 C 7.335938 5.773438 8.226562 6.664062 9.335938 6.664062 L 11.335938 6.664062 L 11.335938 8.664062 C 11.335938 9.035156 11.632812 9.335938 12 9.335938 C 12.367188 9.335938 12.664062 9.035156 12.664062 8.664062 L 12.664062 6 C 12.664062 6 12.664062 6 12.664062 5.960938 C 12.660156 5.898438 12.648438 5.835938 12.625 5.78125 L 12.625 5.71875 C 12.59375 5.652344 12.554688 5.585938 12.5 5.53125 L 8.5 1.53125 C 8.445312 1.484375 8.382812 1.4375 8.3125 1.40625 C 8.289062 1.402344 8.269531 1.402344 8.246094 1.40625 C 8.179688 1.371094 8.109375 1.347656 8.039062 1.335938 L 4 1.335938 C 2.894531 1.335938 2 2.226562 2 3.335938 L 2 12.664062 C 2 13.773438 2.894531 14.664062 4 14.664062 L 8 14.664062 C 8.367188 14.664062 8.664062 14.367188 8.664062 14 C 8.664062 13.632812 8.367188 13.335938 8 13.335938 Z M 8.664062 3.609375 L 10.390625 5.335938 L 9.335938 5.335938 C 8.964844 5.335938 8.664062 5.035156 8.664062 4.664062 Z M 5.335938 5.335938 C 4.964844 5.335938 4.664062 5.632812 4.664062 6 C 4.664062 6.367188 4.964844 6.664062 5.335938 6.664062 L 6 6.664062 C 6.367188 6.664062 6.664062 6.367188 6.664062 6 C 6.664062 5.632812 6.367188 5.335938 6 5.335938 Z M 8 10.664062 L 5.335938 10.664062 C 4.964844 10.664062 4.664062 10.964844 4.664062 11.335938 C 4.664062 11.703125 4.964844 12 5.335938 12 L 8 12 C 8.367188 12 8.664062 11.703125 8.664062 11.335938 C 8.664062 10.964844 8.367188 10.664062 8 10.664062 Z M 8 10.664062 "/>
</g>
</svg>
