<?xml version="1.0" encoding="UTF-8"?>
<svg xmlns="http://www.w3.org/2000/svg" xmlns:xlink="http://www.w3.org/1999/xlink" width="px" height="px" viewBox="0 0 16 16" version="1.1">
<g id="surface1">
<path style=" stroke:none;fill-rule:nonzero;fill:rgb(1.568627%,5.098039%,69.411765%);fill-opacity:1;" d="M 13.945312 10.414062 C 13.914062 10.332031 13.867188 10.257812 13.804688 10.195312 L 11.804688 8.195312 C 11.546875 7.929688 11.121094 7.929688 10.859375 8.195312 C 10.597656 8.453125 10.597656 8.878906 10.859375 9.140625 L 11.726562 10 L 8 10 C 7.632812 10 7.335938 10.296875 7.335938 10.664062 C 7.335938 11.035156 7.632812 11.335938 8 11.335938 L 11.726562 11.335938 L 10.859375 12.195312 C 10.734375 12.320312 10.664062 12.488281 10.664062 12.664062 C 10.664062 12.84375 10.734375 13.015625 10.859375 13.140625 C 10.984375 13.265625 11.15625 13.335938 11.335938 13.335938 C 11.511719 13.335938 11.679688 13.265625 11.804688 13.140625 L 13.804688 11.140625 C 13.867188 11.078125 13.914062 11 13.945312 10.921875 C 14.015625 10.757812 14.015625 10.578125 13.945312 10.414062 Z M 9.335938 13.335938 L 4 13.335938 C 3.632812 13.335938 3.335938 13.035156 3.335938 12.664062 L 3.335938 3.335938 C 3.335938 2.964844 3.632812 2.664062 4 2.664062 L 7.335938 2.664062 L 7.335938 4.664062 C 7.335938 5.773438 8.226562 6.664062 9.335938 6.664062 L 12 6.664062 C 12.269531 6.664062 12.511719 6.5 12.613281 6.253906 C 12.71875 6.007812 12.664062 5.71875 12.472656 5.527344 L 8.472656 1.527344 C 8.417969 1.476562 8.355469 1.429688 8.289062 1.398438 L 8.226562 1.398438 L 8.039062 1.335938 L 4 1.335938 C 2.894531 1.335938 2 2.226562 2 3.335938 L 2 12.664062 C 2 13.773438 2.894531 14.664062 4 14.664062 L 9.335938 14.664062 C 9.703125 14.664062 10 14.367188 10 14 C 10 13.632812 9.703125 13.335938 9.335938 13.335938 Z M 8.664062 3.609375 L 10.390625 5.335938 L 9.335938 5.335938 C 8.964844 5.335938 8.664062 5.035156 8.664062 4.664062 Z M 8.664062 3.609375 "/>
</g>
</svg>
