<?xml version="1.0" encoding="UTF-8"?>
<svg xmlns="http://www.w3.org/2000/svg" xmlns:xlink="http://www.w3.org/1999/xlink" width="px" height="px" viewBox="0 0 16 16" version="1.1">
<g id="surface1">
<path style=" stroke:none;fill-rule:nonzero;fill:rgb(77.254902%,38.431373%,0%);fill-opacity:1;" d="M 7.664062 13.335938 L 3.664062 13.335938 C 3.296875 13.335938 3 13.035156 3 12.664062 L 3 3.335938 C 3 2.964844 3.296875 2.664062 3.664062 2.664062 L 7 2.664062 L 7 4.664062 C 7 5.773438 7.894531 6.664062 9 6.664062 L 11 6.664062 L 11 10 C 11 10.367188 11.296875 10.664062 11.664062 10.664062 C 12.035156 10.664062 12.335938 10.367188 12.335938 10 L 12.335938 6 C 12.335938 6 12.335938 6 12.335938 5.960938 C 12.328125 5.898438 12.3125 5.835938 12.292969 5.78125 L 12.292969 5.71875 C 12.261719 5.652344 12.21875 5.585938 12.164062 5.53125 L 8.164062 1.53125 C 8.109375 1.484375 8.046875 1.4375 7.980469 1.40625 C 7.957031 1.402344 7.9375 1.402344 7.914062 1.40625 C 7.847656 1.371094 7.78125 1.347656 7.707031 1.335938 L 3.664062 1.335938 C 2.5625 1.335938 1.664062 2.226562 1.664062 3.335938 L 1.664062 12.664062 C 1.664062 13.773438 2.5625 14.664062 3.664062 14.664062 L 7.664062 14.664062 C 8.035156 14.664062 8.335938 14.367188 8.335938 14 C 8.335938 13.632812 8.035156 13.335938 7.664062 13.335938 Z M 8.335938 3.609375 L 10.0625 5.335938 L 9 5.335938 C 8.632812 5.335938 8.335938 5.035156 8.335938 4.664062 Z M 5 9.335938 L 9 9.335938 C 9.367188 9.335938 9.664062 9.035156 9.664062 8.664062 C 9.664062 8.296875 9.367188 8 9 8 L 5 8 C 4.632812 8 4.335938 8.296875 4.335938 8.664062 C 4.335938 9.035156 4.632812 9.335938 5 9.335938 Z M 7.664062 10.664062 L 5 10.664062 C 4.632812 10.664062 4.335938 10.964844 4.335938 11.335938 C 4.335938 11.703125 4.632812 12 5 12 L 7.664062 12 C 8.035156 12 8.335938 11.703125 8.335938 11.335938 C 8.335938 10.964844 8.035156 10.664062 7.664062 10.664062 Z M 5 6.664062 L 5.664062 6.664062 C 6.035156 6.664062 6.335938 6.367188 6.335938 6 C 6.335938 5.632812 6.035156 5.335938 5.664062 5.335938 L 5 5.335938 C 4.632812 5.335938 4.335938 5.632812 4.335938 6 C 4.335938 6.367188 4.632812 6.664062 5 6.664062 Z M 14.140625 10.859375 C 14.015625 10.734375 13.84375 10.664062 13.664062 10.664062 C 13.488281 10.664062 13.320312 10.734375 13.195312 10.859375 L 11 13.0625 L 10.140625 12.195312 C 9.878906 11.929688 9.453125 11.929688 9.195312 12.195312 C 8.929688 12.453125 8.929688 12.878906 9.195312 13.140625 L 10.527344 14.472656 C 10.652344 14.601562 10.820312 14.671875 11 14.671875 C 11.179688 14.671875 11.347656 14.601562 11.472656 14.472656 L 14.140625 11.804688 C 14.265625 11.679688 14.335938 11.511719 14.335938 11.335938 C 14.335938 11.15625 14.265625 10.984375 14.140625 10.859375 Z M 14.140625 10.859375 "/>
</g>
</svg>
